<svg width="35" height="35" fill="none" xmlns="http://www.w3.org/2000/svg"><g clip-path="url(#clip0)"><path d="M17.56 21.853c2.388 0 4.324-1.949 4.324-4.353s-1.936-4.353-4.325-4.353c-2.388 0-4.325 1.949-4.325 4.353s1.937 4.353 4.325 4.353z" fill="#F90"/><path d="M33.216 20.373c-2.768-2.699-7.958-1.915-11.504 1.741-3.547 3.657-4.152 8.881-1.47 11.58l.864.87c.52.523 1.211.697 1.903.697.346 0 .52-.348.52-.61 0-.086-.087-.26-.174-.348l-.173-.348c-1.21-1.48-1.73-3.047-1.297-3.395.432-.349 1.816.522 2.94 2.09l.087.086c.173.262.52.262.779.087l.086-.087a39.898 39.898 0 013.114-3.57c1.125-1.131 2.25-2.263 3.46-3.22.26-.175.26-.523.087-.784l-.087-.087c-1.47-1.22-2.422-2.525-2.076-2.96.346-.436 1.903.087 3.374 1.305l.173.174c.26.175.605.175.778-.087.087-.087.087-.174.087-.348.086-.696-.173-1.48-.692-1.915l-.779-.87zM20.414 1.915c-2.681 2.787-1.903 8.01 1.73 11.58 3.633 3.57 8.823 4.18 11.505 1.48l.865-.87c.519-.523.692-1.22.692-1.916 0-.348-.346-.522-.606-.522-.086 0-.26.087-.346.174l-.26.261c-1.47 1.219-3.027 1.741-3.373 1.306-.346-.435.52-1.828 2.076-2.96l.087-.087c.26-.174.26-.523.086-.784l-.086-.087c-1.211-.958-2.422-2.002-3.46-3.047-1.125-1.132-2.25-2.264-3.2-3.483-.174-.261-.52-.261-.78-.087l-.086.087c-1.21 1.48-2.508 2.438-2.94 2.09-.433-.348.086-1.916 1.297-3.396l.173-.174c.173-.261.173-.61-.087-.783-.086-.088-.173-.088-.346-.088-.692-.087-1.47.175-1.903.697l-1.038.61zM1.903 14.801c2.768 2.699 7.958 1.915 11.505-1.741 3.546-3.657 4.152-8.88 1.47-11.58l-.865-.87C13.408.173 12.802-.088 12.11 0c-.346 0-.519.348-.519.61 0 .087.087.26.173.348l.26.26c1.21 1.481 1.73 3.048 1.297 3.396-.432.349-1.816-.522-2.941-2.09l-.087-.086c-.172-.261-.519-.261-.778-.087l-.087.087c-1.124 1.219-2.076 2.438-3.2 3.57-1.125 1.131-2.249 2.263-3.46 3.22-.26.175-.26.523-.087.784l.087.088c1.47 1.218 2.422 2.524 1.99 3.047-.347.522-1.904-.087-3.374-1.306l-.173-.174c-.26-.175-.606-.175-.779.087-.086.087-.086.174-.086.348-.087.697.173 1.48.692 1.915l.865.784z" fill="#4ACC51"/><path d="M14.705 33.259c2.682-2.786 1.903-8.01-1.73-11.58C9.342 18.11 4.24 17.5 1.471 20.286l-.865.87c-.52.523-.692 1.22-.692 1.916 0 .348.346.523.605.523.087 0 .26-.087.346-.175l.26-.26c1.47-1.22 3.027-1.742 3.373-1.307.346.436-.519 1.829-2.076 2.96l-.086.088c-.26.174-.26.522-.087.783l.087.087a39.809 39.809 0 013.546 3.134c1.125 1.132 2.25 2.264 3.2 3.483.174.261.52.261.78.087l.086-.087c1.21-1.48 2.508-2.438 2.94-2.09.433.349-.086 1.916-1.297 3.396v.261c-.173.261-.173.61.087.784.086.087.173.087.346.087.692.087 1.47-.174 1.903-.697l.778-.87z" fill="#F90"/></g><defs><clipPath id="clip0"><path fill="#fff" d="M0 0h35v35H0z"/></clipPath></defs></svg>